# xmcd
#
# Track frame offsets:
# 150
# 18650
# 36592
# 57677
# 72317
# 89925
# 117787
# 127317
# 148405
# 163077
# 178750
# 204057
# 220547
#
# Disc length: 3119 seconds
#
#
# Revision: 3
# Processed by: cddbd v1.5.2PL0 Copyright (c) Steve Scherf et al.
# Submitted via: FreeRIP 2.12 
#
DISCID=d50c2d0d
DTITLE=Topper Price and The Upsetters - Long Way From Home
DYEAR=1993
DGENRE=Blues
TTITLE0=I'm Ready
TTITLE1=Terra Plain Blues
TTITLE2=You Don't have to Go
TTITLE3=Long Way from Home
TTITLE4=Mellow Down Easy
TTITLE5=Who's been Talking?
TTITLE6=Where's Topper?
TTITLE7=Help Me, Baby
TTITLE8=Wade in the Water
TTITLE9=Worried 'bout You, Baby
TTITLE10=Kind Hearted Woman
TTITLE11=Carol
TTITLE12=Someday I'm Gonna Take You Home
EXTD=YEAR: 1993
EXTT0=
EXTT1=
EXTT2=
EXTT3=
EXTT4=
EXTT5=
EXTT6=
EXTT7=
EXTT8=
EXTT9=
EXTT10=
EXTT11=
EXTT12=
PLAYORDER=
